<svg width="100%" viewBox="0 0 114 34" fill="none" xmlns="http://www.w3.org/2000/svg">
  <path d="M76.0114 27.4747H84.5963V25.7034H76.0114V21.1947H88.8167V19.4233H73.9634V34H88.9625V32.2286H76.0114V27.4747Z" fill="black"></path>
  <path d="M102.774 27.4551C105.949 27.0806 107.557 25.7434 107.557 23.48C107.557 20.8652 105.397 19.4253 101.471 19.4253H90.8599V34.0003H92.9295V27.5347H100.267L105.463 34.0003H108.142L102.774 27.4551ZM105.465 23.48C105.465 25.3756 103.814 25.7633 101.337 25.7633H92.9079V21.1966H101.337C103.814 21.1966 105.465 21.5844 105.465 23.48Z" fill="black"></path>
  <path d="M112.247 1.42981C112.247 0.965849 111.869 0.82666 111.48 0.82666H110.792V2.76701H111.107V2.0545H111.582L111.968 2.76701H112.341L111.852 1.95342C112.075 1.89211 112.247 1.66842 112.247 1.42981ZM111.397 1.79601H111.108V1.09178H111.432C111.79 1.09178 111.907 1.2376 111.907 1.44969C111.907 1.69659 111.703 1.79601 111.397 1.79601Z" fill="black"></path>
  <path d="M111.471 0C110.475 0 109.647 0.737365 109.647 1.82933C109.647 2.92129 110.475 3.6454 111.471 3.6454C112.467 3.6454 113.292 2.92129 113.292 1.82933C113.292 0.737365 112.464 0 111.471 0ZM111.471 3.37365C110.631 3.37365 109.96 2.72908 109.96 1.82933C109.96 0.929577 110.631 0.270092 111.471 0.270092C112.311 0.270092 112.979 0.932891 112.979 1.82933C112.979 2.72577 112.31 3.37365 111.471 3.37365Z" fill="black"></path>
  <path d="M74.5518 12.7127V8.60335H65.3837V10.3797H72.5054V12.1526C71.4317 13.977 69.1003 14.9414 65.7581 14.9414C60.8584 14.9414 58.0481 12.7674 58.0481 8.97618C58.0481 5.18496 60.8087 3.01097 65.6239 3.01097C68.4325 3.01097 70.4856 3.80468 71.899 5.43848L71.9454 5.49316L73.7233 4.34817L73.6554 4.27527C72.3712 2.88836 69.9354 1.23633 65.6223 1.23633C59.6587 1.23633 55.9553 4.20236 55.9553 8.97618C55.9553 11.3241 56.8484 13.2811 58.5369 14.6348C60.237 15.9969 62.7092 16.7177 65.6902 16.7177C69.73 16.7177 73.1218 15.1916 74.5402 12.7343L74.5518 12.7144V12.7127Z" fill="black"></path>
  <path d="M8.67603 16.3164H10.7241V3.46965H18.6545V1.73975H0.70752V3.46965H8.67603V16.3164Z" fill="black"></path>
  <path d="M24.406 1.73975L15.6819 16.3147H17.9586L20.2436 12.444H30.7225L33.0075 16.3147H35.3289L26.6048 1.73975H24.4043H24.406ZM29.7067 10.7157H21.261L25.4847 3.57073L29.7067 10.7157Z" fill="black"></path>
  <path d="M53.9038 1.73975H51.9005V13.5111L39.2493 1.76294L39.2261 1.73975H37.072V16.3164H39.0737V4.2153L52.1076 16.2932L52.1308 16.3164H53.9038V1.73975Z" fill="black"></path>
  <path d="M78.7556 1.73975H76.7075V16.3164H90.1839V14.545H78.7556V1.73975Z" fill="black"></path>
  <path d="M107.042 14.545H94.0894V9.78945H103.034V8.01812H94.0894V3.51108H106.818V1.73975H92.043V16.3164H107.042V14.545Z" fill="black"></path>
  <path d="M0.70752 21.1549H8.67603V34H10.7241V21.1549H18.6545V19.4233H0.70752V21.1549Z" fill="black"></path>
  <path d="M20.3115 34H35.0804V32.2286H22.3579V27.4747H31.3007V25.7034H22.3579V21.1947H35.0853V19.4233H20.3115V34Z" fill="black"></path>
  <path d="M39.0554 27.4747H47.9999V25.7034H39.0554V21.1947H51.7845V19.4233H37.009V34H52.0082V32.2286H39.0554V27.4747Z" fill="black"></path>
  <path d="M72.2089 19.4233H53.8062V21.1549H67.4152L52.696 34H72.5834V32.2701H57.4119L72.2089 19.4233Z" fill="black"></path>
</svg>
